<?xml version="1.0" encoding="utf-8"?>
<!-- Generator: Adobe Illustrator 24.3.0, SVG Export Plug-In . SVG Version: 6.00 Build 0)  -->
<svg version="1.1" id="Layer_1" xmlns="http://www.w3.org/2000/svg" xmlns:xlink="http://www.w3.org/1999/xlink" x="0px" y="0px"
	 viewBox="0 0 512 512" style="enable-background:new 0 0 512 512;" xml:space="preserve">
<style type="text/css">
	.st0{fill:#2AC3E7;}
</style>
<g id="teabe4_1_">
	<g>
		<path class="st0" d="M498.8,255.4c0,49.5,0.1,99.1,0,148.6c-0.1,49.3-45.6,94.6-95,94.7c-98.5,0.1-197,0.1-295.5,0
			c-49.8-0.1-95-45.5-95-95.4c0-97.9,0.1-195.9,0.1-293.8C13.4,65,47.9,23.2,91.6,15c5.7-1.1,11.6-1.6,17.4-1.7
			c98.2-0.1,196.5-0.1,294.7-0.1c50,0,94.9,45.1,94.9,95.2c0,49,0,97.9,0,146.9C498.7,255.4,498.7,255.4,498.8,255.4z M343.2,156.7
			c-1.7,1.6-3.9,3.6-6,5.7c-37.5,38.1-75.1,76-112.4,114.3c-5.3,5.4-8.3,5.3-13.2-0.2c-11.8-13.1-24.1-25.7-36.6-38.1
			c-1.8-1.8-6.7-3.2-8-2.1c-13.1,11.2-25.7,22.9-38.8,34.9c3.1,3.4,5.3,6,7.6,8.3c24.1,24.2,48.3,48.3,72.5,72.4
			c7.4,7.3,8.7,7.4,16.2-0.2c12.8-13,25.2-26.2,38-39.1c37.4-37.7,75-75.4,112.5-113.1c2.1-2.1,4.1-4.3,5.3-5.6
			C367.7,181.2,355.7,169.2,343.2,156.7z M350.2,317.1c-11.7-0.1-20.7,8.2-21,19.4c-0.3,11.4,9.1,21.1,20.4,21.1
			c11.3,0,20.4-8.9,20.6-20C370.3,326.4,361.3,317.2,350.2,317.1z"/>
	</g>
</g>
</svg>
